# xmcd CD database file
#
# Track frame offsets:
#	150
#	39479
#	67807
#	101544
#	130066
#	151342
#
# Disc length: 2511 seconds
#
# Revision: 0
# Processed by: cddbd v1.5.2PL0 Copyright (c) Steve Scherf et al.
# Submitted via: CDex 2.23
#
DISCID=4109cd06
DTITLE=John Coltrane - Soultrane CD2
DYEAR=2010
DGENRE=Jazz
TTITLE0=Bakai
TTITLE1=Violets For Your Furs
TTITLE2=Time Was
TTITLE3=Straight Street
TTITLE4=While My Lady Sleeps
TTITLE5=Chronic Blues
EXTD=YEAR: 2010
EXTT0=
EXTT1=
EXTT2=
EXTT3=
EXTT4=
EXTT5=
PLAYORDER=
